<?xml version="1.0" encoding="utf-8"?>
<!-- Generator: Adobe Illustrator 26.2.1, SVG Export Plug-In . SVG Version: 6.00 Build 0)  -->
<svg version="1.1" id="Ebene_1" xmlns="http://www.w3.org/2000/svg" xmlns:xlink="http://www.w3.org/1999/xlink" x="0px" y="0px"
	 viewBox="0 0 500 500" style="enable-background:new 0 0 500 500;" xml:space="preserve">
<style type="text/css">
	.st0{fill:#F29550;}
	.st1{fill:#FACDBD;}
	.st2{fill:#29235C;}
</style>
<g>
	<g>
		<line class="st0" x1="129.9" y1="426.2" x2="98.4" y2="477.8"/>
		
			<rect x="84" y="443.9" transform="matrix(0.5214 -0.8533 0.8533 0.5214 -331.0588 313.7714)" class="st1" width="60.4" height="16.2"/>
	</g>
	
		<ellipse transform="matrix(0.5731 -0.8195 0.8195 0.5731 -201.2384 300.5402)" class="st0" cx="187.8" cy="343.4" rx="101.1" ry="150.5"/>
	<path class="st2" d="M236.5,470.9c-35.1,0-75.1-12.7-111.3-38c-71.7-50.1-101.9-131-67.4-180.3c17.1-24.4,46.8-37.6,83.9-36.8
		c35.8,0.7,74.4,14.2,108.6,38.2c34.2,23.9,60.2,55.5,73.1,89c13.4,34.5,11.3,67-5.8,91.4C300.7,458.7,270.9,470.9,236.5,470.9z
		 M139,232c-30.3,0-54.3,10.6-67.8,29.9c-29.4,42-0.9,112.8,63.4,157.8S275.1,467,304.5,425c13.9-19.8,15.3-46.9,3.9-76.3
		c-11.8-30.4-35.7-59.4-67.3-81.5l0,0c-31.6-22.1-67-34.6-99.7-35.3C140.6,232,139.8,232,139,232z"/>
	<g>
		<path class="st0" d="M302.8,91.7c-32.7,85.1-198.4,202.9-198.4,202.9s25.2,126,162.3,112.7c0,0,47.6-197.6,114.4-259.7"/>
		<path class="st2" d="M246.9,416.4c-124.9,0-150.2-118.9-150.4-120.2l-1-5.1l4.3-3c1.6-1.2,164.1-117.4,195.5-199.2l15.1,5.8
			C279.8,174.1,140.9,278.1,113.6,298c6.1,22.3,36.9,109.7,146.7,101.7c8.5-33.6,53.2-200.3,115.4-258l11,11.9
			c-64.3,59.7-111.6,253.7-112,255.6l-1.4,5.6l-5.7,0.6C260.4,416.1,253.5,416.4,246.9,416.4z"/>
	</g>
	<g>
		
			<ellipse transform="matrix(0.5731 -0.8195 0.8195 0.5731 53.0881 326.494)" class="st0" cx="339.9" cy="112.3" rx="78.8" ry="117.3"/>
		<path class="st2" d="M377.8,213.4c-27.7,0-59.2-10-87.7-29.9c-27-18.9-47.5-43.8-57.7-70.2c-10.6-27.5-9-53.4,4.7-72.9
			C250.8,20.9,274.7,10.8,304,11c28.3,0.5,58.7,11.2,85.7,30.1c27,18.9,47.5,43.8,57.7,70.2c10.6,27.5,9,53.4-4.7,72.9
			C429,203.7,405.2,213.4,377.8,213.4z M301.8,27.2c-23,0-41.2,8-51.4,22.5c-10.5,15-11.5,35.5-2.9,57.8c9,23.4,27.5,45.7,51.8,62.7
			c49.3,34.5,107.7,36.6,130,4.6c10.5-15,11.5-35.5,2.9-57.8c-9-23.4-27.5-45.7-51.8-62.7l0,0c-24.4-17-51.6-26.7-76.7-27.2
			C303.1,27.2,302.4,27.2,301.8,27.2z"/>
	</g>
</g>
</svg>
